<svg xmlns="http://www.w3.org/2000/svg" viewBox="0 0 72 72">
    <path d="M57 34A23 23 0 0 0 18 20" fill="none" stroke="#fff" stroke-width="5" stroke-linecap="round"/>
    <path d="m17 9-2 15 15-2" fill="none" stroke="#fff" stroke-width="5" stroke-linecap="round" stroke-linejoin="round"/>
    <path d="M0 0 C5.79717923 5.19330639 9.16038897 10.9387364 12.42578125 17.92578125 C15.33612979 23.60926586 19.13428483 29.22444216 23.73828125 33.68359375 C25 35 25 35 25 37 C25.69222656 37.2371875 26.38445312 37.474375 27.09765625 37.71875 C30.5427842 39.23961402 33.42402079 41.27831267 36.4375 43.5 C37.68874075 44.40763664 38.94004457 45.31518635 40.19140625 46.22265625 C40.82578613 46.68559082 41.46016602 47.14852539 42.11376953 47.62548828 C45.02284565 49.74535607 47.94720674 51.8435878 50.875 53.9375 C51.44879395 54.34822754 52.02258789 54.75895508 52.61376953 55.18212891 C57.64197917 58.76933573 62.73001288 62.26610676 67.82763672 65.75366211 C72.74948197 69.12599383 77.63205179 72.5504088 82.5 76 C88.22676227 80.0548884 93.97221513 84.08058536 99.75 88.0625 C100.40548828 88.51560547 101.06097656 88.96871094 101.73632812 89.43554688 C104.43810798 91.29214012 107.10202192 93.05816329 109.953125 94.68359375 C110.96632813 95.33521484 110.96632813 95.33521484 112 96 C112 96.66 112 97.32 112 98 C112.72993164 98.26949463 113.45986328 98.53898926 114.21191406 98.81665039 C118.77623678 100.75388964 122.6737739 103.64158779 126.75 106.4375 C127.62527344 107.02337891 128.50054687 107.60925781 129.40234375 108.21289062 C130.23378906 108.78072266 131.06523437 109.34855469 131.921875 109.93359375 C132.68081055 110.44978271 133.43974609 110.96597168 134.22167969 111.49780273 C136 113 136 113 137 116 C137.99 116.33 138.98 116.66 140 117 C140 117.66 140 118.32 140 119 C140.66 119 141.32 119 142 119 C145.50149976 126.28131542 146.56757379 132.31860935 146.42578125 140.3515625 C146.42249313 141.40926849 146.41920502 142.46697449 146.41581726 143.55673218 C146.4001944 146.91325171 146.35628568 150.26874324 146.3125 153.625 C146.30098946 155.85285625 146.29121 158.08072215 146.28320312 160.30859375 C146.21780549 171.90427121 145.92105522 183.43864641 145 195 C140.35399335 194.38269842 137.57859152 193.19822768 133.671875 190.59375 C129.37002336 188.02773323 124.80923667 186.0179254 120.25463867 183.94311523 C115.67767184 181.84448769 111.34927615 179.53790713 107 177 C104.65076969 175.71836142 102.29919375 174.44557492 99.9375 173.1875 C99.29192139 172.84275635 98.64634277 172.4980127 97.98120117 172.14282227 C93.62722717 169.83035355 89.23559145 167.61472018 84.8125 165.4375 C80.53130949 163.32079532 76.39958297 161.0942793 72.3125 158.625 C67.22371286 155.58803358 61.99455651 153.05098613 56.625 150.5625 C48.4701404 146.7806647 40.73158695 142.58204455 33 138 C32.392771 137.67290039 31.78554199 137.34580078 31.15991211 137.00878906 C26.08047823 134.25352664 23.96032593 131.84416971 21 127 C21 126.34 21 125.68 21 125 C20.01 124.67 19.02 124.34 18 124 C16.0625 121.63671875 16.0625 121.63671875 14 118.6875 C13.319375 117.72199219 12.63875 116.75648438 11.9375 115.76171875 C10.75028309 114.06945593 9.56807133 112.37365088 8.39453125 110.671875 C7.10527706 108.76622952 7.10527706 108.76622952 4.6875 108.5625 C1.34472937 109.10667196 -1.02205749 110.39191104 -4 112 C-9.25271556 114.67410974 -12.25593886 115.55771149 -18 114 C-20.61014707 112.8040193 -23.14357531 111.52379542 -25.66796875 110.15625 C-27.79995774 109.09918343 -29.67781361 108.46977564 -32 108 C-32.33773437 108.5053125 -32.67546875 109.010625 -33.0234375 109.53125 C-33.69246094 110.50578125 -33.69246094 110.50578125 -34.375 111.5 C-35.03628906 112.47453125 -35.03628906 112.47453125 -35.7109375 113.46875 C-36.34902344 114.22671875 -36.34902344 114.22671875 -37 115 C-37.66 115 -38.32 115 -39 115 C-39 115.99 -39 116.98 -39 118 C-40.28669373 119.37839573 -41.62906473 120.70536026 -43 122 C-45.00972638 124.45722012 -46.95404101 126.95877641 -48.90234375 129.46484375 C-53.44904011 134.95982688 -57.61971014 138.14674661 -64 141.125 C-65.39671305 141.79243299 -66.79256765 142.4616658 -68.1875 143.1328125 C-68.85007812 143.45024414 -69.51265625 143.76767578 -70.1953125 144.09472656 C-72.15881859 145.04943515 -72.15881859 145.04943515 -74.5625 146.5546875 C-77.59454103 148.35253234 -80.75414289 149.62715076 -84 151 C-86.62419246 152.25231733 -89.21841896 153.56163661 -91.8125 154.875 C-92.51826172 155.23013672 -93.22402344 155.58527344 -93.95117188 155.95117188 C-95.34755929 156.65384528 -96.74356963 157.35726864 -98.13916016 158.06152344 C-100.42323716 159.21345101 -102.71117851 160.35753223 -105 161.5 C-105.75539063 161.87769531 -106.51078125 162.25539062 -107.2890625 162.64453125 C-113.52604167 165.76302083 -119.76302083 168.88151042 -126 172 C-126.75539062 172.40863281 -127.51078125 172.81726563 -128.2890625 173.23828125 C-130 174 -130 174 -133 174 C-133 174.66 -133 175.32 -133 176 C-133.67804688 176.30292969 -134.35609375 176.60585937 -135.0546875 176.91796875 C-140.5061529 179.37188323 -145.90110239 181.90051799 -151.234375 184.6015625 C-153.38611328 185.68958836 -155.54217877 186.76645598 -157.703125 187.8359375 C-158.34145264 188.15256348 -158.97978027 188.46918945 -159.63745117 188.79541016 C-160.90517146 189.42404507 -162.17354811 190.05135836 -163.44262695 190.67724609 C-166.42086775 192.04169846 -166.42086775 192.04169846 -169 194 C-170.66617115 194.04063832 -172.33388095 194.042721 -174 194 C-174.09293927 185.27213876 -174.16388558 176.54444953 -174.20724869 167.81620026 C-174.22806754 163.76270489 -174.25627957 159.70954966 -174.30175781 155.65625 C-174.34542098 151.7399311 -174.36917994 147.82393806 -174.37950897 143.90739441 C-174.38686386 142.41793188 -174.40122599 140.9284859 -174.42292023 139.43916321 C-174.55676167 129.86459099 -174.20663273 123.07270418 -167.875 115.4375 C-164.51988867 112.59294909 -160.99366262 110.11613477 -157.36328125 107.63671875 C-155.58956956 106.40831347 -153.87226543 105.09781235 -152.1875 103.75 C-150 102 -150 102 -147.7734375 100.6796875 C-143.95242708 98.36555443 -140.34776323 95.75475584 -136.72851562 93.140625 C-133.80775765 91.07730592 -131.43426096 89.85654509 -128 89 C-127.505 87.515 -127.505 87.515 -127 86 C-122.66666667 83 -122.66666667 83 -120 83 C-120 82.34 -120 81.68 -120 81 C-119.01 81 -118.02 81 -117 81 C-117 80.34 -117 79.68 -117 79 C-115.36645849 77.94675743 -113.69233371 76.95592071 -112 76 C-107.2170758 72.7775731 -102.5289802 69.42702495 -97.9375 65.9375 C-94.49780055 63.33187597 -90.95055353 60.93559186 -87.34765625 58.5625 C-82.25386959 55.17229257 -77.27216838 51.61503767 -72.28515625 48.0703125 C-71.40730469 47.44898438 -70.52945313 46.82765625 -69.625 46.1875 C-68.43777344 45.34251953 -68.43777344 45.34251953 -67.2265625 44.48046875 C-65 43 -65 43 -62.8984375 41.98828125 C-60.82527748 40.90904362 -59.6020264 39.68724057 -58 38 C-57.4534375 37.57203125 -56.906875 37.1440625 -56.34375 36.703125 C-46.64852363 29.06197201 -39.87121284 18.0754225 -34.26171875 7.2421875 C-31.26119396 1.90998556 -26.64286396 -1.8550999 -20.8125 -3.6875 C-13.02499499 -4.55277833 -6.52236197 -4.85232171 0 0 Z " fill="#5796B4" transform="translate(38,39) scale(0.10)"/>
</svg>
