<svg xmlns="http://www.w3.org/2000/svg" width="72" height="72" viewBox="0 0 1024 1024">
    <rect x="0" y="0" width="1024" height="1024" rx="190" fill="#5796B4"/>
    <g transform="translate(82 219) scale(1.319)">
<path d="M0 0 C5.79717923 5.19330639 9.16038897 10.9387364 12.42578125 17.92578125 C15.33612979 23.60926586 19.13428483 29.22444216 23.73828125 33.68359375 C25 35 25 35 25 37 C25.69222656 37.2371875 26.38445312 37.474375 27.09765625 37.71875 C30.5427842 39.23961402 33.42402079 41.27831267 36.4375 43.5 C37.68874075 44.40763664 38.94004457 45.31518635 40.19140625 46.22265625 C40.82578613 46.68559082 41.46016602 47.14852539 42.11376953 47.62548828 C45.02284565 49.74535607 47.94720674 51.8435878 50.875 53.9375 C51.44879395 54.34822754 52.02258789 54.75895508 52.61376953 55.18212891 C57.64197917 58.76933573 62.73001288 62.26610676 67.82763672 65.75366211 C72.74948197 69.12599383 77.63205179 72.5504088 82.5 76 C88.22676227 80.0548884 93.97221513 84.08058536 99.75 88.0625 C100.40548828 88.51560547 101.06097656 88.96871094 101.73632812 89.43554688 C104.43810798 91.29214012 107.10202192 93.05816329 109.953125 94.68359375 C110.96632813 95.33521484 110.96632813 95.33521484 112 96 C112 96.66 112 97.32 112 98 C112.72993164 98.26949463 113.45986328 98.53898926 114.21191406 98.81665039 C118.77623678 100.75388964 122.6737739 103.64158779 126.75 106.4375 C127.62527344 107.02337891 128.50054687 107.60925781 129.40234375 108.21289062 C130.23378906 108.78072266 131.06523437 109.34855469 131.921875 109.93359375 C132.68081055 110.44978271 133.43974609 110.96597168 134.22167969 111.49780273 C136 113 136 113 137 116 C137.99 116.33 138.98 116.66 140 117 C140 117.66 140 118.32 140 119 C140.66 119 141.32 119 142 119 C145.50149976 126.28131542 146.56757379 132.31860935 146.42578125 140.3515625 C146.42249313 141.40926849 146.41920502 142.46697449 146.41581726 143.55673218 C146.4001944 146.91325171 146.35628568 150.26874324 146.3125 153.625 C146.30098946 155.85285625 146.29121 158.08072215 146.28320312 160.30859375 C146.21780549 171.90427121 145.92105522 183.43864641 145 195 C140.35399335 194.38269842 137.57859152 193.19822768 133.671875 190.59375 C129.37002336 188.02773323 124.80923667 186.0179254 120.25463867 183.94311523 C115.67767184 181.84448769 111.34927615 179.53790713 107 177 C104.65076969 175.71836142 102.29919375 174.44557492 99.9375 173.1875 C99.29192139 172.84275635 98.64634277 172.4980127 97.98120117 172.14282227 C93.62722717 169.83035355 89.23559145 167.61472018 84.8125 165.4375 C80.53130949 163.32079532 76.39958297 161.0942793 72.3125 158.625 C67.22371286 155.58803358 61.99455651 153.05098613 56.625 150.5625 C48.4701404 146.7806647 40.73158695 142.58204455 33 138 C32.392771 137.67290039 31.78554199 137.34580078 31.15991211 137.00878906 C26.08047823 134.25352664 23.96032593 131.84416971 21 127 C21 126.34 21 125.68 21 125 C20.01 124.67 19.02 124.34 18 124 C16.0625 121.63671875 16.0625 121.63671875 14 118.6875 C13.319375 117.72199219 12.63875 116.75648438 11.9375 115.76171875 C10.75028309 114.06945593 9.56807133 112.37365088 8.39453125 110.671875 C7.10527706 108.76622952 7.10527706 108.76622952 4.6875 108.5625 C1.34472937 109.10667196 -1.02205749 110.39191104 -4 112 C-9.25271556 114.67410974 -12.25593886 115.55771149 -18 114 C-20.61014707 112.8040193 -23.14357531 111.52379542 -25.66796875 110.15625 C-27.79995774 109.09918343 -29.67781361 108.46977564 -32 108 C-32.33773437 108.5053125 -32.67546875 109.010625 -33.0234375 109.53125 C-33.69246094 110.50578125 -33.69246094 110.50578125 -34.375 111.5 C-35.03628906 112.47453125 -35.03628906 112.47453125 -35.7109375 113.46875 C-36.34902344 114.22671875 -36.34902344 114.22671875 -37 115 C-37.66 115 -38.32 115 -39 115 C-39 115.99 -39 116.98 -39 118 C-40.28669373 119.37839573 -41.62906473 120.70536026 -43 122 C-45.00972638 124.45722012 -46.95404101 126.95877641 -48.90234375 129.46484375 C-53.44904011 134.95982688 -57.61971014 138.14674661 -64 141.125 C-65.39671305 141.79243299 -66.79256765 142.4616658 -68.1875 143.1328125 C-68.85007812 143.45024414 -69.51265625 143.76767578 -70.1953125 144.09472656 C-72.15881859 145.04943515 -72.15881859 145.04943515 -74.5625 146.5546875 C-77.59454103 148.35253234 -80.75414289 149.62715076 -84 151 C-86.62419246 152.25231733 -89.21841896 153.56163661 -91.8125 154.875 C-92.51826172 155.23013672 -93.22402344 155.58527344 -93.95117188 155.95117188 C-95.34755929 156.65384528 -96.74356963 157.35726864 -98.13916016 158.06152344 C-100.42323716 159.21345101 -102.71117851 160.35753223 -105 161.5 C-105.75539063 161.87769531 -106.51078125 162.25539062 -107.2890625 162.64453125 C-113.52604167 165.76302083 -119.76302083 168.88151042 -126 172 C-126.75539062 172.40863281 -127.51078125 172.81726563 -128.2890625 173.23828125 C-130 174 -130 174 -133 174 C-133 174.66 -133 175.32 -133 176 C-133.67804688 176.30292969 -134.35609375 176.60585937 -135.0546875 176.91796875 C-140.5061529 179.37188323 -145.90110239 181.90051799 -151.234375 184.6015625 C-153.38611328 185.68958836 -155.54217877 186.76645598 -157.703125 187.8359375 C-158.34145264 188.15256348 -158.97978027 188.46918945 -159.63745117 188.79541016 C-160.90517146 189.42404507 -162.17354811 190.05135836 -163.44262695 190.67724609 C-166.42086775 192.04169846 -166.42086775 192.04169846 -169 194 C-170.66617115 194.04063832 -172.33388095 194.042721 -174 194 C-174.09293927 185.27213876 -174.16388558 176.54444953 -174.20724869 167.81620026 C-174.22806754 163.76270489 -174.25627957 159.70954966 -174.30175781 155.65625 C-174.34542098 151.7399311 -174.36917994 147.82393806 -174.37950897 143.90739441 C-174.38686386 142.41793188 -174.40122599 140.9284859 -174.42292023 139.43916321 C-174.55676167 129.86459099 -174.20663273 123.07270418 -167.875 115.4375 C-164.51988867 112.59294909 -160.99366262 110.11613477 -157.36328125 107.63671875 C-155.58956956 106.40831347 -153.87226543 105.09781235 -152.1875 103.75 C-150 102 -150 102 -147.7734375 100.6796875 C-143.95242708 98.36555443 -140.34776323 95.75475584 -136.72851562 93.140625 C-133.80775765 91.07730592 -131.43426096 89.85654509 -128 89 C-127.505 87.515 -127.505 87.515 -127 86 C-122.66666667 83 -122.66666667 83 -120 83 C-120 82.34 -120 81.68 -120 81 C-119.01 81 -118.02 81 -117 81 C-117 80.34 -117 79.68 -117 79 C-115.36645849 77.94675743 -113.69233371 76.95592071 -112 76 C-107.2170758 72.7775731 -102.5289802 69.42702495 -97.9375 65.9375 C-94.49780055 63.33187597 -90.95055353 60.93559186 -87.34765625 58.5625 C-82.25386959 55.17229257 -77.27216838 51.61503767 -72.28515625 48.0703125 C-71.40730469 47.44898438 -70.52945313 46.82765625 -69.625 46.1875 C-68.43777344 45.34251953 -68.43777344 45.34251953 -67.2265625 44.48046875 C-65 43 -65 43 -62.8984375 41.98828125 C-60.82527748 40.90904362 -59.6020264 39.68724057 -58 38 C-57.4534375 37.57203125 -56.906875 37.1440625 -56.34375 36.703125 C-46.64852363 29.06197201 -39.87121284 18.0754225 -34.26171875 7.2421875 C-31.26119396 1.90998556 -26.64286396 -1.8550999 -20.8125 -3.6875 C-13.02499499 -4.55277833 -6.52236197 -4.85232171 0 0 Z " fill="#FCFDFD" transform="translate(341,18)"/>
<path d="M0 0 C2.11437964 0.01453111 4.22812995 0.0382121 6.34228516 0.07250977 C7.80475527 0.08919132 9.26749775 0.09000034 10.72998047 0.07446289 C22.82010117 -0.04734159 22.82010117 -0.04734159 26.29321289 2.79248047 C27.62387378 4.8770082 28.4849444 6.82872502 29.296875 9.16015625 C29.82152344 10.2171875 30.34617187 11.27421875 30.88671875 12.36328125 C31.33144531 13.36875 31.77617188 14.37421875 32.234375 15.41015625 C34.22710349 19.83730047 36.29142878 24.20354465 38.484375 28.53515625 C40.58445576 32.69713449 42.51026283 36.85604512 44.296875 41.16015625 C45.36958654 43.4902586 46.44234736 45.8201195 47.52734375 48.14453125 C48.296875 50.16015625 48.296875 50.16015625 48.296875 53.16015625 C48.956875 53.16015625 49.616875 53.16015625 50.296875 53.16015625 C51.286875 55.47015625 52.276875 57.78015625 53.296875 60.16015625 C53.626875 40.69015625 53.956875 21.22015625 54.296875 1.16015625 C57.61635281 0.3302868 59.94104528 0.03172188 63.2890625 0.02734375 C64.24167969 0.02605469 65.19429687 0.02476562 66.17578125 0.0234375 C67.16449219 0.02730469 68.15320313 0.03117188 69.171875 0.03515625 C70.15285156 0.03128906 71.13382813 0.02742187 72.14453125 0.0234375 C73.09972656 0.02472656 74.05492187 0.02601563 75.0390625 0.02734375 C76.33626221 0.02903564 76.33626221 0.02903564 77.65966797 0.03076172 C80.55975709 0.17305456 83.43280348 0.682811 86.296875 1.16015625 C86.296875 43.73015625 86.296875 86.30015625 86.296875 130.16015625 C75.736875 130.16015625 65.176875 130.16015625 54.296875 130.16015625 C46.24915578 115.40600435 46.24915578 115.40600435 43.40234375 107.84765625 C41.97563975 104.3792027 40.29985865 101.0704117 38.609375 97.72265625 C34.01986045 88.61014185 29.66464739 79.38100908 25.296875 70.16015625 C24.966875 89.96015625 24.636875 109.76015625 24.296875 130.16015625 C14.066875 130.16015625 3.836875 130.16015625 -6.703125 130.16015625 C-6.85609616 113.35795612 -7.00492107 96.55573689 -7.1460886 79.75343418 C-7.21176496 71.95237661 -7.27933549 64.15134393 -7.35131836 56.3503418 C-7.41403141 49.55342226 -7.47323828 42.75648292 -7.52818054 35.95949596 C-7.55741364 32.3583547 -7.58843916 28.75724846 -7.62365913 25.15616035 C-7.66284738 21.14263238 -7.69420969 17.12908081 -7.72485352 13.11547852 C-7.73779953 11.91282852 -7.75074554 10.71017853 -7.76408386 9.47108459 C-7.77112335 8.38428406 -7.77816284 7.29748352 -7.78541565 6.17774963 C-7.79371179 5.22738107 -7.80200792 4.2770125 -7.81055546 3.29784489 C-7.5780571 -1.32848838 -3.83180366 0.0115003 0 0 Z " fill="#F9FBFC" transform="translate(560.703125,243.83984375)"/>
<path d="M0 0 C4.59322457 -0.00788325 9.1841461 0.0204816 13.77679443 0.09515381 C15.26429404 0.1174661 16.75191713 0.13276582 18.23956299 0.14068604 C26.42683352 0.20142144 33.42807907 0.26043873 39.77697754 6.00390625 C40.34625977 6.51743652 40.91554199 7.0309668 41.5020752 7.56005859 C49.15094927 15.41266119 48.06640284 26.26381094 47.96447754 36.50390625 C47.95613894 37.97867638 47.94817735 39.45344867 47.94055176 40.92822266 C47.91273975 45.25366064 47.86524146 49.57872021 47.81341553 53.90393066 C47.77332666 57.31450619 47.73781085 60.72511634 47.70227051 64.13574219 C47.63279727 70.58702853 47.54917608 77.0380193 47.45657349 83.48901367 C47.42021784 86.07930783 47.38666237 88.66964283 47.35592651 91.26000977 C47.31063331 94.93267315 47.25253874 98.6049204 47.19104004 102.27734375 C47.17947372 103.38737762 47.16790741 104.4974115 47.1559906 105.64108276 C47.13613602 106.67008698 47.11628143 107.69909119 47.0958252 108.75927734 C47.08250153 109.65520599 47.06917786 110.55113464 47.05545044 111.47421265 C46.74785061 114.2685001 45.928753 116.45113573 44.77697754 119.00390625 C44.11697754 119.00390625 43.45697754 119.00390625 42.77697754 119.00390625 C42.77697754 119.99390625 42.77697754 120.98390625 42.77697754 122.00390625 C42.11697754 122.00390625 41.45697754 122.00390625 40.77697754 122.00390625 C40.77697754 122.66390625 40.77697754 123.32390625 40.77697754 124.00390625 C37.15508129 128.27897281 32.34335098 129.74863267 26.92276001 130.28781128 C23.55934495 130.41636087 20.20925035 130.44589304 16.84338379 130.4375 C14.99461891 130.44536278 14.99461891 130.44536278 13.10850525 130.4533844 C10.51061758 130.45978747 7.91270086 130.45848995 5.31481934 130.44995117 C1.35571323 130.44144115 -2.60194923 130.47023026 -6.56091309 130.50195312 C-9.0928137 130.5035654 -11.62471685 130.50298711 -14.15661621 130.5 C-15.33187363 130.51123398 -16.50713104 130.52246796 -17.71800232 130.53404236 C-25.78294445 130.46616932 -32.19001293 129.26936472 -38.56286621 124.109375 C-39.09009277 123.47644531 -39.61731934 122.84351563 -40.16052246 122.19140625 C-40.97843262 121.25361328 -40.97843262 121.25361328 -41.81286621 120.296875 C-45.33069335 114.57675164 -45.51785656 108.62695331 -45.49768066 102.10620117 C-45.50534706 100.81203026 -45.50534706 100.81203026 -45.51316833 99.49171448 C-45.52700237 96.65586293 -45.52611197 93.82025617 -45.52380371 90.984375 C-45.52769454 89.00051281 -45.53203001 87.01665144 -45.53678894 85.03279114 C-45.54423824 80.87949928 -45.54396959 76.72629245 -45.53869629 72.57299805 C-45.53290885 67.27058386 -45.54982152 61.9685198 -45.57304096 56.66616344 C-45.58782914 52.56958507 -45.588643 48.47308998 -45.58553123 44.37648964 C-45.58604207 42.42261373 -45.59123483 40.46873287 -45.60134315 38.51488304 C-45.69989699 16.79869714 -45.69989699 16.79869714 -40.53552246 8.19140625 C-33.44942664 1.48834264 -27.50016661 0.20698916 -17.84802246 0.12890625 C-16.65080566 0.10554199 -15.45358887 0.08217773 -14.22009277 0.05810547 C-10.93029515 0.01139691 -7.64238463 -0.0062235 -4.35229492 0 C-2.90153239 0.00266149 -1.45076273 0.00254925 0 0 Z M-14.22302246 31.00390625 C-14.22302246 53.44390625 -14.22302246 75.88390625 -14.22302246 99.00390625 C-3.99302246 99.00390625 6.23697754 99.00390625 16.77697754 99.00390625 C16.80604262 87.12011958 16.80604262 87.12011958 16.82580566 75.23632812 C16.83179349 70.39248566 16.83889219 65.54866203 16.85241699 60.70483398 C16.86324797 56.80154654 16.86925482 52.89827926 16.87185478 48.99497795 C16.87370865 47.50256978 16.87732854 46.01016277 16.8827076 44.51776314 C16.88992085 42.43442486 16.89096836 40.35117094 16.89050293 38.26782227 C16.89383385 36.48578148 16.89383385 36.48578148 16.89723206 34.66773987 C17.08060349 32.08269932 17.08060349 32.08269932 15.77697754 31.00390625 C5.87697754 31.00390625 -4.02302246 31.00390625 -14.22302246 31.00390625 Z " fill="#FBFDFD" transform="translate(482.2230224609375,243.99609375)"/>
<path d="M0 0 C1.36231916 -0.00524211 2.72463469 -0.01152073 4.08694458 -0.01878357 C6.93655523 -0.02916595 9.78566589 -0.02465978 12.63525391 -0.01000977 C16.26917189 0.00715243 19.90150477 -0.01629352 23.5352459 -0.05149937 C26.34764891 -0.07357081 29.15967854 -0.07200834 31.97214127 -0.06373405 C33.95728949 -0.06252599 35.94241499 -0.08237015 37.92745972 -0.10267639 C45.39347402 -0.02606037 50.34567648 0.70442625 56.1328125 5.56640625 C56.8959375 6.14390625 57.6590625 6.72140625 58.4453125 7.31640625 C64.04029708 14.77638569 63.50356735 23.72077427 63.3203125 32.62890625 C63.2584375 36.89828125 63.1965625 41.16765625 63.1328125 45.56640625 C53.2328125 45.56640625 43.3328125 45.56640625 33.1328125 45.56640625 C33.1328125 40.61640625 33.1328125 35.66640625 33.1328125 30.56640625 C23.2328125 30.89640625 13.3328125 31.22640625 3.1328125 31.56640625 C2.8028125 53.67640625 2.4728125 75.78640625 2.1328125 98.56640625 C12.3628125 98.56640625 22.5928125 98.56640625 33.1328125 98.56640625 C33.1328125 93.94640625 33.1328125 89.32640625 33.1328125 84.56640625 C43.0328125 84.56640625 52.9328125 84.56640625 63.1328125 84.56640625 C63.1740625 88.71203125 63.2153125 92.85765625 63.2578125 97.12890625 C63.27602051 98.42256104 63.29422852 99.71621582 63.31298828 101.04907227 C63.34967049 108.67364647 62.91969148 114.80412236 59.1328125 121.56640625 C58.4728125 121.56640625 57.8128125 121.56640625 57.1328125 121.56640625 C57.1328125 122.22640625 57.1328125 122.88640625 57.1328125 123.56640625 C56.4728125 123.56640625 55.8128125 123.56640625 55.1328125 123.56640625 C54.6378125 125.05140625 54.6378125 125.05140625 54.1328125 126.56640625 C47.28195663 130.06199262 40.77621545 130.0188938 33.19921875 130 C31.35045387 130.00786278 31.35045387 130.00786278 29.46434021 130.0158844 C26.86645254 130.02228747 24.26853582 130.02098995 21.6706543 130.01245117 C17.71154819 130.00394115 13.75388573 130.03273026 9.79492188 130.06445312 C7.26302126 130.0660654 4.73111811 130.06548711 2.19921875 130.0625 C1.02396133 130.07373398 -0.15129608 130.08496796 -1.36216736 130.09654236 C-9.02101755 130.03208691 -15.90305499 129.2587129 -21.71458435 123.84568787 C-27.54259862 117.53437798 -29.3155952 111.70778514 -29.27124023 103.29150391 C-29.27810349 102.37688889 -29.28496674 101.46227386 -29.29203796 100.51994324 C-29.31028853 97.50662563 -29.30647049 94.4938296 -29.30078125 91.48046875 C-29.30534427 89.37828401 -29.3106502 87.27610076 -29.31666565 85.17391968 C-29.32559364 80.77083268 -29.32317755 76.36792708 -29.31323242 71.96484375 C-29.30175035 66.33364908 -29.32194449 60.7030822 -29.35114956 55.07196999 C-29.36953335 50.73096769 -29.3692146 46.39011518 -29.36351204 42.04908371 C-29.36335905 39.97353612 -29.36938447 37.89797824 -29.38180351 35.8224678 C-29.39675055 32.91461568 -29.38600851 30.0079148 -29.36889648 27.10009766 C-29.37856445 26.24996597 -29.38823242 25.39983429 -29.39819336 24.52394104 C-29.31019749 17.35058785 -27.1755835 12.23928583 -22.4921875 6.81640625 C-21.6259375 6.07390625 -20.7596875 5.33140625 -19.8671875 4.56640625 C-18.72999268 3.52432007 -18.72999268 3.52432007 -17.56982422 2.46118164 C-12.42699695 -0.89019519 -5.89653288 -0.02249504 0 0 Z " fill="#FAFCFD" transform="translate(348.8671875,244.43359375)"/>
<path d="M0 0 C1.34888732 0.00015905 2.69778075 0.00584927 4.04663086 0.01586914 C5.10991859 0.01799156 5.10991859 0.01799156 6.19468689 0.02015686 C8.46699173 0.02577096 10.73919936 0.03832576 13.01147461 0.05102539 C14.54858257 0.05603858 16.08569206 0.0606018 17.62280273 0.06469727 C21.39823103 0.07574497 25.17358632 0.09301898 28.94897461 0.11352539 C29.07594727 0.78826904 29.20291992 1.4630127 29.33374023 2.15820312 C29.50583008 3.04967041 29.67791992 3.9411377 29.85522461 4.85961914 C30.02344727 5.74061279 30.19166992 6.62160645 30.36499023 7.52929688 C31.04620956 10.54380629 32.08883125 13.27656286 33.23413086 16.13696289 C33.97419455 18.1832592 34.44875103 20.17051242 34.88647461 22.30102539 C35.66830653 26.0929102 36.72307694 29.73311916 37.88647461 33.42602539 C39.53665121 38.66991993 40.93699963 43.92819395 42.23022461 49.26977539 C42.91435502 51.97655224 43.6882253 54.63369763 44.51147461 57.30102539 C45.47003274 60.41013103 46.28236521 63.49172596 46.94897461 66.67602539 C47.56781671 69.59777169 48.33186945 72.35972689 49.32397461 75.17602539 C51.06814745 80.17834851 52.28469575 85.29149539 53.50317383 90.44189453 C54.39558126 94.15240686 55.52469891 97.58155138 56.94897461 101.11352539 C57.46316006 103.16757511 57.94022927 105.23115292 58.38647461 107.30102539 C59.48810356 112.26397624 60.78846665 117.07385026 62.39819336 121.89477539 C62.94897461 124.11352539 62.94897461 124.11352539 62.94897461 129.11352539 C53.04897461 129.11352539 43.14897461 129.11352539 32.94897461 129.11352539 C28.94897461 118.11352539 28.94897461 118.11352539 27.94897461 110.11352539 C17.71897461 110.11352539 7.48897461 110.11352539 -3.05102539 110.11352539 C-3.38102539 112.09352539 -3.71102539 114.07352539 -4.05102539 116.11352539 C-4.35263709 117.84462446 -4.66453601 119.57397458 -4.98852539 121.30102539 C-5.21862305 122.55979492 -5.21862305 122.55979492 -5.45336914 123.84399414 C-6.05102539 126.11352539 -6.05102539 126.11352539 -8.05102539 129.11352539 C-11.1237793 129.45410156 -11.1237793 129.45410156 -15.02758789 129.40649414 C-15.71283539 129.4022493 -16.39808289 129.39800446 -17.10409546 129.39363098 C-19.29513668 129.37682292 -21.48526171 129.33916944 -23.67602539 129.30102539 C-25.16038712 129.28598118 -26.64476324 129.27229232 -28.12915039 129.26000977 C-31.77007372 129.22691329 -35.41046017 129.17511746 -39.05102539 129.11352539 C-38.8620166 128.42460205 -38.67300781 127.73567871 -38.47827148 127.02587891 C-36.84111524 121.04333023 -35.24033662 115.05296536 -33.67602539 109.05102539 C-31.42871163 100.47246863 -29.07794094 91.92581796 -26.68481445 83.38696289 C-26.02683665 81.02675901 -25.37774173 78.66425297 -24.73071289 76.30102539 C-22.8753556 69.53872724 -21.02676673 62.81547969 -18.71459961 56.19213867 C-18.06920028 54.17045734 -17.59214394 52.18184498 -17.15649414 50.10571289 C-15.9303777 44.46673125 -14.50023546 38.8862236 -13.05102539 33.30102539 C-12.66043945 31.76671875 -12.66043945 31.76671875 -12.26196289 30.20141602 C-11.87911133 28.72511719 -11.87911133 28.72511719 -11.48852539 27.21899414 C-11.1462793 25.89097778 -11.1462793 25.89097778 -10.79711914 24.53613281 C-10.0848609 22.22339114 -9.13615535 20.26802334 -8.05102539 18.11352539 C-7.66154403 16.76752121 -7.31705795 15.40777596 -7.01586914 14.03930664 C-6.76160156 12.91492188 -6.76160156 12.91492188 -6.50219727 11.76782227 C-6.24792969 10.60863281 -6.24792969 10.60863281 -5.98852539 9.42602539 C-3.93742403 0.14650734 -3.93742403 0.14650734 0 0 Z M11.94897461 58.11352539 C10.94431732 61.23704766 9.94604534 64.36257392 8.94897461 67.48852539 C8.5197168 68.82270508 8.5197168 68.82270508 8.08178711 70.18383789 C7.81108398 71.03461914 7.54038086 71.88540039 7.26147461 72.76196289 C7.01010742 73.54748535 6.75874023 74.33300781 6.49975586 75.14233398 C5.85927201 77.09344644 5.85927201 77.09344644 5.94897461 79.11352539 C9.90897461 79.11352539 13.86897461 79.11352539 17.94897461 79.11352539 C17.44934771 71.6191219 15.51132983 65.15702276 12.94897461 58.11352539 C12.61897461 58.11352539 12.28897461 58.11352539 11.94897461 58.11352539 Z " fill="#FAFCFC" transform="translate(129.051025390625,244.886474609375)"/>
<path d="M0 0 C27.06 0 54.12 0 82 0 C82 9.9 82 19.8 82 30 C65.17 30 48.34 30 31 30 C31 36.27 31 42.54 31 49 C42.88 49 54.76 49 67 49 C67 59.23 67 69.46 67 80 C55.12 80 43.24 80 31 80 C31 96.17 31 112.34 31 129 C20.77 129 10.54 129 0 129 C0 86.43 0 43.86 0 0 Z " fill="#FDFEFE" transform="translate(7,245)"/>
<path d="M0 0 C10.23 0 20.46 0 31 0 C31 32.34 31 64.68 31 98 C46.51 98 62.02 98 78 98 C78 108.23 78 118.46 78 129 C52.26 129 26.52 129 0 129 C0 86.43 0 43.86 0 0 Z " fill="#F9FCFD" transform="translate(217,245)"/>
<path d="M0 0 C27.06 0 54.12 0 82 0 C82 9.9 82 19.8 82 30 C65.17 30 48.34 30 31 30 C31 36.27 31 42.54 31 49 C42.88 49 54.76 49 67 49 C67 49.33 67 49.66 67 50 C54.79 50 42.58 50 30 50 C30 43.07 30 36.14 30 29 C32.83330763 28.05556412 34.52561232 27.88291509 37.45556641 27.90234375 C38.35304596 27.90564697 39.25052551 27.9089502 40.17520142 27.91235352 C41.62375015 27.92480103 41.62375015 27.92480103 43.1015625 27.9375 C44.58987076 27.94317993 44.58987076 27.94317993 46.10824585 27.94897461 C49.28054097 27.96120587 52.45274591 27.97984347 55.625 28 C59.80468489 28.02646966 63.98432587 28.04651777 68.1640625 28.0625 C69.61868393 28.07494751 69.61868393 28.07494751 71.10269165 28.08764648 C72.4394545 28.09260132 72.4394545 28.09260132 73.80322266 28.09765625 C74.98544907 28.10551147 74.98544907 28.10551147 76.19155884 28.11352539 C78.02169285 28.19877915 78.02169285 28.19877915 79 27 C79.15786308 25.14825294 79.25107356 23.2909089 79.31640625 21.43359375 C79.35830078 20.30888672 79.40019531 19.18417969 79.44335938 18.02539062 C79.48267578 16.84138672 79.52199219 15.65738281 79.5625 14.4375 C79.62727539 12.65569336 79.62727539 12.65569336 79.69335938 10.83789062 C79.79983546 7.89205216 79.90184841 4.9461257 80 2 C78.55966904 2.00333092 78.55966904 2.00333092 77.09024048 2.00672913 C68.05515275 2.02697278 59.0200696 2.04197806 49.98496437 2.05181217 C45.33957603 2.05703788 40.69420595 2.06412989 36.04882812 2.07543945 C31.56847325 2.08627939 27.08813598 2.0922792 22.60776901 2.09487724 C20.89569191 2.09672949 19.18361581 2.10034629 17.47154617 2.10573006 C15.07947941 2.11295514 12.68748602 2.11399032 10.29541016 2.11352539 C9.58259384 2.11712067 8.86977753 2.12071594 8.13536072 2.12442017 C3.22810432 2.11405216 3.22810432 2.11405216 1 1 C1 42.91 1 84.82 1 128 C10.57 128 20.14 128 30 128 C30 111.83 30 95.66 30 79 C40.23 79 50.46 79 61 79 C61 79.33 61 79.66 61 80 C51.1 80 41.2 80 31 80 C31 96.17 31 112.34 31 129 C20.77 129 10.54 129 0 129 C0 86.43 0 43.86 0 0 Z " fill="#B5D4E1" transform="translate(7,245)"/>
<path d="M0 0 C1.25555096 2.51110193 0.91796995 3.65511014 0.57080078 6.43139648 C-0.29188686 14.97266205 -0.14394064 23.52243365 -0.1328125 32.09765625 C-0.13348758 33.94127922 -0.1344593 35.78490211 -0.13571167 37.62852478 C-0.13717868 41.4754217 -0.13506607 45.32229527 -0.13037109 49.16918945 C-0.12467039 54.07677854 -0.12796135 58.98431297 -0.13394356 63.89190006 C-0.13757274 67.69335841 -0.13639985 71.49480399 -0.13381577 75.29626274 C-0.13315322 77.10499516 -0.13395115 78.91372877 -0.13629532 80.72245979 C-0.1452258 89.5464374 -0.13015804 98.23201619 1 107 C-1.2477975 104.94766315 -2.0022242 103.99332739 -3 101 C-3.10715402 98.0038203 -3.15727407 95.0305633 -3.16113281 92.03393555 C-3.16609772 91.11654602 -3.17106262 90.19915649 -3.17617798 89.25396729 C-3.19079928 86.21487684 -3.19760168 83.17583861 -3.203125 80.13671875 C-3.20887662 78.02545673 -3.21463435 75.91419473 -3.22039795 73.80293274 C-3.23090794 69.37358354 -3.23675058 64.94425249 -3.24023438 60.51489258 C-3.24571811 54.84206907 -3.2697437 49.16948569 -3.29820633 43.49673748 C-3.31683974 39.13439739 -3.3220387 34.77211506 -3.32357025 30.40973854 C-3.32659587 28.31857808 -3.33462133 26.22741862 -3.34775543 24.13629723 C-3.36482987 21.20876225 -3.36293212 18.28181276 -3.35644531 15.35424805 C-3.3656601 14.49221268 -3.37487488 13.63017731 -3.3843689 12.74201965 C-3.34962572 7.73089772 -2.68723809 4.39233178 0 0 Z " fill="#B1CFD6" transform="translate(323,256)"/>
<path d="M0 0 C0.99 0 1.98 0 3 0 C2.67 20.46 2.34 40.92 2 62 C0.68 61.67 -0.64 61.34 -2 61 C-1.34 61 -0.68 61 0 61 C0 40.87 0 20.74 0 0 Z " fill="#EEFDFF" transform="translate(583,311)"/>
<path d="M0 0 C0.33 0 0.66 0 1 0 C1 22.11 1 44.22 1 67 C-9.23 67 -19.46 67 -30 67 C-35 58 -35 58 -35 55 C-33.68 55.33 -32.36 55.66 -31 56 C-30.7834375 56.9590625 -30.7834375 56.9590625 -30.5625 57.9375 C-30.18992819 59.97545146 -30.18992819 59.97545146 -29 61 C-29 62.65 -29 64.3 -29 66 C-19.43 66 -9.86 66 0 66 C0 44.22 0 22.44 0 0 Z " fill="#F5FEFF" transform="translate(645,307)"/>
<path d="M0 0 C0.99 0 1.98 0 3 0 C2 3 2 3 -1.234375 4.66918945 C-7.12459417 6.67198483 -13.09674413 6.37200229 -19.25 6.29296875 C-20.50385498 6.28872391 -21.75770996 6.28447906 -23.04956055 6.28010559 C-26.35735787 6.26622169 -29.66470382 6.23934353 -32.97235107 6.20599365 C-36.35781373 6.17511574 -39.74334288 6.1615627 -43.12890625 6.14648438 C-49.75277856 6.11350263 -56.37635242 6.06336837 -63 6 C-63 5.67 -63 5.34 -63 5 C-62.35599747 4.98969254 -61.71199493 4.97938507 -61.04847717 4.96876526 C-54.31567312 4.86016866 -47.58298866 4.74561757 -40.8503418 4.62768555 C-38.34125279 4.58450625 -35.83213761 4.54281999 -33.32299805 4.50268555 C-29.70613739 4.44456896 -26.08940642 4.38099583 -22.47265625 4.31640625 C-21.35979752 4.29969376 -20.24693878 4.28298126 -19.10035706 4.26576233 C-13.00070878 4.15103531 -7.05143745 3.78109964 -1 3 C-0.67 2.01 -0.34 1.02 0 0 Z " fill="#BDD6E4" transform="translate(401,368)"/>
<path d="M0 0 C0.33 0 0.66 0 1 0 C1.04640556 7.34549508 1.08191089 14.69095839 1.10362434 22.03657055 C1.11404739 25.44769162 1.12817938 28.85871217 1.15087891 32.26977539 C1.17683004 36.19416081 1.18648505 40.11850596 1.1953125 44.04296875 C1.20563507 45.26396774 1.21595764 46.48496674 1.22659302 47.7429657 C1.22674408 48.8837709 1.22689514 50.02457611 1.22705078 51.19995117 C1.231492 52.20144699 1.23593323 53.20294281 1.24050903 54.23478699 C0.98550248 57.16668291 0.22694662 59.33965323 -1 62 C-1.66 62 -2.32 62 -3 62 C-3 62.99 -3 63.98 -3 65 C-3.66 65 -4.32 65 -5 65 C-5 63.68 -5 62.36 -5 61 C-4.34 61 -3.68 61 -3 61 C-1.30555263 57.29456043 -0.73619037 54.35538917 -0.68115234 50.29174805 C-0.66128265 49.17096359 -0.64141296 48.05017914 -0.62094116 46.89543152 C-0.60938995 45.6963063 -0.59783875 44.49718109 -0.5859375 43.26171875 C-0.56657135 42.02581497 -0.5472052 40.78991119 -0.5272522 39.51655579 C-0.47767445 36.24348033 -0.43637171 32.970439 -0.39910889 29.69720459 C-0.35897981 26.35206543 -0.30776548 23.00711627 -0.2578125 19.66210938 C-0.16183193 13.10818139 -0.07676329 6.55417972 0 0 Z " fill="#DFF7FE" transform="translate(528,301)"/>
<path d="M0 0 C10.56 0 21.12 0 32 0 C31.67 0.99 31.34 1.98 31 3 C31 2.34 31 1.68 31 1 C26.88786732 1.26063614 22.7761731 1.52727424 18.66479492 1.79956055 C17.26516364 1.8913956 15.86542236 1.98156953 14.46557617 2.07006836 C12.45723996 2.19732223 10.44931293 2.3309833 8.44140625 2.46484375 C7.23170166 2.543396 6.02199707 2.62194824 4.77563477 2.70288086 C2.09461717 2.69610704 2.09461717 2.69610704 1 4 C0.63239269 6.32817964 0.29758419 8.6618385 0 11 C-0.99 11.33 -1.98 11.66 -3 12 C-2.51855059 7.18550592 -2.1991413 4.39828259 0 0 Z " fill="#DCF6FB" transform="translate(126,245)"/>
<path d="M0 0 C1.32 0.33 2.64 0.66 4 1 C4.144375 1.639375 4.28875 2.27875 4.4375 2.9375 C4.81007181 4.97545146 4.81007181 4.97545146 6 6 C6 7.65 6 9.3 6 11 C15.9 11 25.8 11 36 11 C36 11.33 36 11.66 36 12 C25.77 12 15.54 12 5 12 C0 3 0 3 0 0 Z " fill="#BFD7E5" transform="translate(610,362)"/>
<path d="M0 0 C0.99 0 1.98 0 3 0 C2.67 12.21 2.34 24.42 2 37 C1.67 37 1.34 37 1 37 C-0.07650471 24.65864238 -0.11028714 12.38100347 0 0 Z " fill="#E1F4F6" transform="translate(583,311)"/>
<path d="M0 0 C-1.25839515 3.77518545 -2.55903808 4.19759138 -6 6 C-6.99 6.33 -7.98 6.66 -9 7 C-9 7.66 -9 8.32 -9 9 C-10.32 9.33 -11.64 9.66 -13 10 C-13.33 11.65 -13.66 13.3 -14 15 C-14.66 15 -15.32 15 -16 15 C-15.4902277 10.53949235 -14.1276485 8.20784461 -11 5 C-4.20547945 0 -4.20547945 0 0 0 Z " fill="#C7DCE7" transform="translate(455,245)"/>
<path d="M0 0 C0.33 0 0.66 0 1 0 C1.33 3.3 1.66 6.6 2 10 C-7.9 10 -17.8 10 -28 10 C-28 9.67 -28 9.34 -28 9 C-18.76 9 -9.52 9 0 9 C-0.33 8.01 -0.66 7.02 -1 6 C-0.72428861 3.99124558 -0.39764263 1.98821313 0 0 Z " fill="#B3D6E4" transform="translate(190,364)"/>
<path d="M0 0 C0.74900574 0.0028299 1.49801147 0.00565979 2.26971436 0.00857544 C4.65393276 0.0197399 7.03777079 0.04483719 9.421875 0.0703125 C11.04166123 0.08034715 12.66145336 0.08947215 14.28125 0.09765625 C18.24493746 0.11966695 22.20834181 0.15417075 26.171875 0.1953125 C26.171875 0.5253125 26.171875 0.8553125 26.171875 1.1953125 C25.18791748 1.21513184 24.20395996 1.23495117 23.19018555 1.25537109 C19.53904661 1.33145237 15.88830491 1.4201655 12.23754883 1.51269531 C10.65755049 1.55097471 9.07746531 1.58582947 7.49731445 1.6171875 C5.22575855 1.66286126 2.95479991 1.72085034 0.68359375 1.78125 C-0.02275711 1.79280121 -0.72910797 1.80435242 -1.4568634 1.81625366 C-5.10553893 1.92602298 -6.71026046 2.11673614 -9.828125 4.1953125 C-10.488125 3.5353125 -11.148125 2.8753125 -11.828125 2.1953125 C-8.06917964 -0.26245947 -4.32858954 -0.06179565 0 0 Z " fill="#CEEDF8" transform="translate(342.828125,244.8046875)"/>
<path d="M0 0 C0.66 0 1.32 0 2 0 C4.29013653 3.4352048 4.17842973 4.985331 4 9 C3.01 8.34 2.02 7.68 1 7 C0.01 10.465 0.01 10.465 -1 14 C-1.33 14 -1.66 14 -2 14 C-1.85923685 12.0412957 -1.7122324 10.08303907 -1.5625 8.125 C-1.48128906 7.03445313 -1.40007812 5.94390625 -1.31640625 4.8203125 C-1 2 -1 2 0 0 Z " fill="#A9DDE4" transform="translate(140,299)"/>
<path d="M0 0 C2.625 0.375 2.625 0.375 5 1 C4.13375 1.309375 4.13375 1.309375 3.25 1.625 C0.20666366 3.48481665 -1.07311426 6.04544187 -3 9 C-3.66 9 -4.32 9 -5 9 C-5 9.99 -5 10.98 -5 12 C-5.66 12 -6.32 12 -7 12 C-6.67 10.35 -6.34 8.7 -6 7 C-5.01 6.67 -4.02 6.34 -3 6 C-2.40929986 4.05396726 -2.40929986 4.05396726 -2 2 C-1.34 1.34 -0.68 0.68 0 0 Z " fill="#C5E7EF" transform="translate(307,124)"/>
<path d="M0 0 C3.3 0 6.6 0 10 0 C10 0.33 10 0.66 10 1 C5.545 1.495 5.545 1.495 1 2 C0.67 4.97 0.34 7.94 0 11 C-0.99 11.33 -1.98 11.66 -3 12 C-2.51855059 7.18550592 -2.1991413 4.39828259 0 0 Z " fill="#B7DDE6" transform="translate(126,245)"/>
<path d="M0 0 C0.66 0.33 1.32 0.66 2 1 C-0.68058098 4.57410797 -3.42589203 7.31941902 -7 10 C-8.32 9.34 -9.64 8.68 -11 8 C-7.37 5.36 -3.74 2.72 0 0 Z " fill="#C4E1EA" transform="translate(207,109)"/>
<path d="M0 0 C1.32 0.33 2.64 0.66 4 1 C4.77321882 3.98241547 5.41196203 6.97580475 6 10 C3 9 3 9 1.3125 6.125 C0 3 0 3 0 0 Z " fill="#CCE1E8" transform="translate(610,362)"/>
<path d="M0 0 C0.33 0 0.66 0 1 0 C1.55253221 7.35174806 0.51064108 12.511583 -3 19 C-4.35949488 14.92151537 -3.14486103 11.82319055 -2.0625 7.8125 C-1.86720703 7.06291016 -1.67191406 6.31332031 -1.47070312 5.54101562 C-0.98785625 3.69206541 -0.49489367 1.84576224 0 0 Z " fill="#B5D2DD" transform="translate(119,267)"/>
<path d="M0 0 C2.04119788 1.61594832 4.04072937 3.2856382 6 5 C6 5.66 6 6.32 6 7 C8.475 7.99 8.475 7.99 11 9 C10.01 9.66 9.02 10.32 8 11 C8 10.34 8 9.68 8 9 C7.0409375 8.8453125 7.0409375 8.8453125 6.0625 8.6875 C5.381875 8.460625 4.70125 8.23375 4 8 C3.67 7.01 3.34 6.02 3 5 C2.01 4.34 1.02 3.68 0 3 C0 2.01 0 1.02 0 0 Z " fill="#CEE6E9" transform="translate(360,48)"/>
<path d="M0 0 C0.99 0 1.98 0 3 0 C2 3 2 3 0.0390625 4.01953125 C-0.75757813 4.28121094 -1.55421875 4.54289062 -2.375 4.8125 C-3.16648437 5.08707031 -3.95796875 5.36164063 -4.7734375 5.64453125 C-7 6 -7 6 -10 4 C-5.545 3.505 -5.545 3.505 -1 3 C-0.67 2.01 -0.34 1.02 0 0 Z " fill="#CBE8ED" transform="translate(401,368)"/>
<path d="M0 0 C1.2077558 3.62326739 0.54311128 4.64146369 -1 8 C-1.66 8 -2.32 8 -3 8 C-3 8.99 -3 9.98 -3 11 C-3.66 11 -4.32 11 -5 11 C-5 9.68 -5 8.36 -5 7 C-4.34 7 -3.68 7 -3 7 C-2.690625 6.21625 -2.38125 5.4325 -2.0625 4.625 C-1 2 -1 2 0 0 Z " fill="#B4D6E4" transform="translate(528,355)"/>
<path d="M0 0 C1.32 0 2.64 0 4 0 C4 0.66 4 1.32 4 2 C4.94875 2.103125 5.8975 2.20625 6.875 2.3125 C10 3 10 3 12 6 C10.55903414 5.57405412 9.12231288 5.13373367 7.6875 4.6875 C6.88699219 4.44386719 6.08648437 4.20023438 5.26171875 3.94921875 C2.90035427 2.95817977 1.66120007 1.91925057 0 0 Z " fill="#CCDFE5" transform="translate(385,161)"/>
<path d="M0 0 C-1.49097658 3.7952131 -3.75700849 5.61042731 -7 8 C-7 5 -7 5 -4.625 2.3125 C-2 0 -2 0 0 0 Z " fill="#C9ECF2" transform="translate(316,17)"/>
<path d="M0 0 C1.60156595 4.00391487 0.4087561 7.07031192 -1 11 C-1.99 11.495 -1.99 11.495 -3 12 C-2.69106068 10.3743193 -2.3777305 8.74947252 -2.0625 7.125 C-1.88847656 6.22007812 -1.71445313 5.31515625 -1.53515625 4.3828125 C-1 2 -1 2 0 0 Z " fill="#A7CAD7" transform="translate(104,324)"/>
<path d="M0 0 C0.33 0 0.66 0 1 0 C1.08131463 1.43655854 1.13933559 2.8744483 1.1875 4.3125 C1.23970703 5.51326172 1.23970703 5.51326172 1.29296875 6.73828125 C0.93801608 9.47851584 0.10633718 10.29171079 -2 12 C-2.21278058 7.53160785 -1.59138085 4.17737474 0 0 Z " fill="#BBD6DF" transform="translate(114,286)"/>
<path d="M0 0 C-3.96 1.98 -3.96 1.98 -8 4 C-8.66 3.34 -9.32 2.68 -10 2 C-4.5 -1.125 -4.5 -1.125 0 0 Z " fill="#C6E5EC" transform="translate(223,186)"/>
<path d="M0 0 C0.33 0 0.66 0 1 0 C0.67 3.3 0.34 6.6 0 10 C-0.99 10.33 -1.98 10.66 -3 11 C-2.53199289 6.94393835 -2.12046792 3.53411321 0 0 Z " fill="#BEE2ED" transform="translate(111,299)"/>
<path d="M0 0 C4.35535069 1.16142685 6.64619703 2.07699505 9 6 C5.51669784 5.35494404 2.90567134 4.01782732 0 2 C0 1.34 0 0.68 0 0 Z " fill="#CCE5EC" transform="translate(514,246)"/>
<path d="M0 0 C2.31 0 4.62 0 7 0 C7 0.99 7 1.98 7 3 C7.66 3 8.32 3 9 3 C9 3.66 9 4.32 9 5 C5.54074837 3.7508258 2.85306797 2.32472205 0 0 Z " fill="#CCE0EC" transform="translate(462,201)"/>
<path d="M0 0 C0.99 0.33 1.98 0.66 3 1 C3 1.66 3 2.32 3 3 C3.99 3.33 4.98 3.66 6 4 C6 4.66 6 5.32 6 6 C6.66 6 7.32 6 8 6 C7.67 6.66 7.34 7.32 7 8 C6.34 7.67 5.68 7.34 5 7 C5 6.34 5 5.68 5 5 C2.525 4.01 2.525 4.01 0 3 C0 2.01 0 1.02 0 0 Z " fill="#BFE5EB" transform="translate(475,131)"/>
<path d="M0 0 C3.465 1.98 3.465 1.98 7 4 C7 4.66 7 5.32 7 6 C4.625 5.8125 4.625 5.8125 2 5 C0.6875 2.4375 0.6875 2.4375 0 0 Z " fill="#E1F3F7" transform="translate(381,65)"/>
<path d="M0 0 C7.57142857 4.14285714 7.57142857 4.14285714 10 7 C7.03 6.505 7.03 6.505 4 6 C3.67 5.01 3.34 4.02 3 3 C2.01 2.67 1.02 2.34 0 2 C0 1.34 0 0.68 0 0 Z " fill="#C8E9F0" transform="translate(371,58)"/>
<path d="M0 0 C-3.1254959 2.64465038 -6.08788267 3.84414715 -10 5 C-10 4.34 -10 3.68 -10 3 C-6.58168085 0.4606772 -4.24223102 -0.3636198 0 0 Z " fill="#CDDFE5" transform="translate(257,168)"/>
<path d="M0 0 C0.66 0.33 1.32 0.66 2 1 C1.07213211 2.00894372 0.13231567 3.00690907 -0.8125 4 C-1.59560547 4.8353125 -1.59560547 4.8353125 -2.39453125 5.6875 C-4 7 -4 7 -7 7 C-7 6.34 -7 5.68 -7 5 C-5.03277992 3.61876037 -3.03131672 2.28511874 -1 1 C-0.67 0.67 -0.34 0.34 0 0 Z " fill="#B5D2D9" transform="translate(181,127)"/>
<path d="M0 0 C1.485 0.99 1.485 0.99 3 2 C3.1875 5.125 3.1875 5.125 3 8 C1.68 7.01 0.36 6.02 -1 5 C-0.67 3.35 -0.34 1.7 0 0 Z " fill="#ABC6CF" transform="translate(141,300)"/>
<path d="M0 0 C-0.33 0.99 -0.66 1.98 -1 3 C-3.0625 3.6875 -3.0625 3.6875 -5 4 C-5 3.01 -5 2.02 -5 1 C-3 0 -3 0 0 0 Z M-8 5 C-7.01 5.495 -7.01 5.495 -6 6 C-6.99 6.495 -6.99 6.495 -8 7 C-8 6.34 -8 5.68 -8 5 Z " fill="#D9EBF0" transform="translate(455,245)"/>
<path d="M0 0 C2.97 0.495 2.97 0.495 6 1 C4.1875 2.5625 4.1875 2.5625 2 4 C1.01 3.67 0.02 3.34 -1 3 C-0.67 2.01 -0.34 1.02 0 0 Z " fill="#EAFBFD" transform="translate(554,244)"/>
    </g>
</svg>
